<svg width="36" height="22" viewBox="0 0 36 22" fill="none" xmlns="http://www.w3.org/2000/svg">
<path fill-rule="evenodd" clip-rule="evenodd" d="M20.293 2.19815L20.6072 2.74238L24.7287 9.88098L27.4763 5.12186L27.6857 4.75904C28.2238 3.82705 29.1478 3.29364 30.2239 3.29364C31.3001 3.29364 32.224 3.82698 32.7621 4.75904L32.9716 5.12186L35.7192 9.88098H32.9716L29.537 15.8298L29.2751 16.2833C28.6026 17.4483 27.4476 18.1151 26.1025 18.1151C24.7573 18.1151 23.6024 17.4483 22.9298 16.2833L22.668 15.8298L19.2334 9.88098L14.4251 18.2093L14.0584 18.8442C13.1169 20.4752 11.5 21.4087 9.61668 21.4087C7.7334 21.4087 6.11662 20.4752 5.17492 18.8442L4.80837 18.2093L0 9.88098H8.24291L12.3644 2.74238L12.6786 2.19815C13.4858 0.80019 14.8716 0 16.4858 0C18.1 0 19.486 0.80019 20.2931 2.19815H20.293Z" fill="url(#paint0_linear_4808_15827)"/>
<defs>
<linearGradient id="paint0_linear_4808_15827" x1="0.617057" y1="10.9498" x2="35.7192" y2="9.88098" gradientUnits="userSpaceOnUse">
<stop stop-color="#2E66E5"/>
<stop offset="1" stop-color="#6495FF"/>
</linearGradient>
</defs>
</svg>
